<?xml version="1.0" standalone="no"?>
<!DOCTYPE svg PUBLIC "-//W3C//DTD SVG 20010904//EN"
 "http://www.w3.org/TR/2001/REC-SVG-20010904/DTD/svg10.dtd">
<svg version="1.0" xmlns="http://www.w3.org/2000/svg"
 width="2134.000000pt" height="2134.000000pt" viewBox="0 0 2134.000000 2134.000000"
 preserveAspectRatio="xMidYMid meet">
<metadata>
Created by potrace 1.14, written by Peter Selinger 2001-2017
</metadata>
<g transform="translate(0.000000,2134.000000) scale(0.100000,-0.100000)"
fill="#000000" stroke="none">
<path d="M3137 20594 c-1 -1 -58 -4 -127 -7 -160 -8 -355 -31 -435 -51 -5 -2
-28 -6 -50 -11 -126 -24 -349 -90 -495 -147 -307 -119 -669 -333 -885 -523
-16 -14 -55 -48 -85 -74 -106 -93 -237 -230 -355 -372 -78 -93 -212 -289 -280
-409 -84 -148 -210 -414 -229 -485 -2 -5 -6 -17 -9 -25 -30 -70 -110 -360
-122 -442 -4 -24 -8 -46 -11 -49 -2 -4 -6 -24 -9 -45 -3 -22 -8 -50 -10 -64
-6 -33 -15 -103 -25 -197 -9 -89 -7 -13192 2 -13238 4 -16 9 -55 13 -85 11
-98 32 -208 61 -335 3 -11 7 -30 10 -43 10 -51 78 -262 110 -345 232 -600 612
-1091 1138 -1469 66 -48 132 -93 146 -100 13 -7 47 -27 74 -45 74 -48 336
-175 466 -226 180 -71 374 -126 570 -162 134 -24 182 -31 300 -42 110 -10
15442 -11 15535 0 150 16 209 25 323 47 536 105 1012 332 1437 684 83 69 320
306 391 392 354 424 591 921 690 1444 9 47 17 92 19 100 2 9 6 43 10 75 4 33
9 71 11 85 16 89 18 911 18 6655 0 5808 -2 6560 -20 6690 -6 50 -42 261 -49
295 -3 14 -7 36 -10 50 -12 69 -89 319 -128 420 -67 172 -173 391 -250 515
-107 173 -243 355 -357 480 -223 243 -480 456 -728 601 -53 31 -114 67 -134
80 -21 13 -40 24 -43 24 -3 0 -56 24 -118 54 -261 125 -589 224 -877 265 -122
17 -151 20 -235 27 -63 5 -15242 13 -15248 8z"/>
</g>
</svg>
